<svg width="120" height="40" viewBox="0 0 120 40" fill="none" xmlns="http://www.w3.org/2000/svg">
<g clip-path="url(#clip0_2493_42844)">
<path d="M3.98374 26.152C2.22609 25.8 0 25.092 0 23.452C0 21.812 0.340689 21.108 1.98993 19.116C3.63918 17.124 7.79326 13.276 18.5405 7.124C29.2915 0.972 36.7441 0 40.2555 0C43.7669 0 46.806 1.152 49.036 3.584C51.266 6.016 52.1642 8.232 52.1642 14.248C52.1642 20.264 50.7937 24.512 49.2102 29.248C47.6268 33.984 44.9284 40 37.3906 40C31.2234 40 26.6396 36.724 24.4135 35.088C22.1874 33.452 19.9884 31.332 15.451 29.34C10.9137 27.348 3.98761 26.152 3.98761 26.152H3.98374Z" fill="#BA1F63"/>
<mask id="mask0_2493_42844" style="mask-type:luminance" maskUnits="userSpaceOnUse" x="0" y="0" width="53" height="40">
<path d="M3.98374 26.152C2.22609 25.8 0 25.092 0 23.452C0 21.812 0.340689 21.108 1.98993 19.116C3.63918 17.124 7.79326 13.276 18.5405 7.124C29.2915 0.972 36.7441 0 40.2555 0C43.7669 0 46.806 1.152 49.036 3.584C51.266 6.016 52.1642 8.232 52.1642 14.248C52.1642 20.264 50.7937 24.512 49.2102 29.248C47.6268 33.984 44.9284 40 37.3906 40C31.2234 40 26.6396 36.724 24.4135 35.088C22.1874 33.452 19.9884 31.332 15.451 29.34C10.9137 27.348 3.98761 26.152 3.98761 26.152H3.98374Z" fill="white"/>
</mask>
<g mask="url(#mask0_2493_42844)">
<path d="M51.8194 22.524C51.8194 22.524 51.6917 14.824 46.7246 8.27597C41.0877 0.843971 32.5898 -3.01003e-05 32.5898 -3.01003e-05C32.5898 -3.01003e-05 42.3111 -2.74403 48.1802 1.32797C54.0455 5.39997 52.8918 12.7 52.8492 15.088C52.8066 17.476 51.8233 22.52 51.8233 22.52L51.8194 22.524Z" fill="#FBB41C"/>
</g>
<mask id="mask1_2493_42844" style="mask-type:luminance" maskUnits="userSpaceOnUse" x="0" y="0" width="53" height="40">
<path d="M3.98374 26.152C2.22609 25.8 0 25.092 0 23.452C0 21.812 0.340689 21.108 1.98993 19.116C3.63918 17.124 7.79326 13.276 18.5405 7.124C29.2915 0.972 36.7441 0 40.2555 0C43.7669 0 46.806 1.152 49.036 3.584C51.266 6.016 52.1642 8.232 52.1642 14.248C52.1642 20.264 50.7937 24.512 49.2102 29.248C47.6268 33.984 44.9284 40 37.3906 40C31.2234 40 26.6396 36.724 24.4135 35.088C22.1874 33.452 19.9884 31.332 15.451 29.34C10.9137 27.348 3.98761 26.152 3.98761 26.152H3.98374Z" fill="white"/>
</mask>
<g mask="url(#mask1_2493_42844)">
<path d="M23.1709 3.40809C23.1709 3.40809 26.4384 3.71608 31.8662 6.15209C37.3908 8.62809 41.3203 12.7961 44.0536 17.8881C47.7354 24.7481 48.5251 34.1161 48.5251 34.1161L52.9696 20.4441C52.9696 20.4441 51.8662 10.7521 46.4694 6.19609C41.0726 1.64009 32.8922 -0.791915 33.0199 -0.903915C33.1477 -1.01591 23.1709 3.40809 23.1709 3.40809Z" fill="#358FCD"/>
</g>
<mask id="mask2_2493_42844" style="mask-type:luminance" maskUnits="userSpaceOnUse" x="0" y="0" width="53" height="40">
<path d="M3.98374 26.152C2.22609 25.8 0 25.092 0 23.452C0 21.812 0.340689 21.108 1.98993 19.116C3.63918 17.124 7.79326 13.276 18.5405 7.124C29.2915 0.972 36.7441 0 40.2555 0C43.7669 0 46.806 1.152 49.036 3.584C51.266 6.016 52.1642 8.232 52.1642 14.248C52.1642 20.264 50.7937 24.512 49.2102 29.248C47.6268 33.984 44.9284 40 37.3906 40C31.2234 40 26.6396 36.724 24.4135 35.088C22.1874 33.452 19.9884 31.332 15.451 29.34C10.9137 27.348 3.98761 26.152 3.98761 26.152H3.98374Z" fill="white"/>
</mask>
<g mask="url(#mask2_2493_42844)">
<path d="M14.6494 7.98014C14.6494 7.98014 22.8724 11.2001 30.7934 18.1121C39.1093 25.3681 41.8078 30.1641 43.2131 32.7121C45.4818 36.8281 45.3966 40.9881 45.3966 40.9881L50.1508 31.3881C50.1508 31.3881 48.0098 17.5401 39.7868 10.4601C31.5639 3.38014 24.4133 2.14014 24.4133 2.14014L14.6494 7.98014Z" fill="#EB1F26"/>
</g>
<mask id="mask3_2493_42844" style="mask-type:luminance" maskUnits="userSpaceOnUse" x="0" y="0" width="53" height="40">
<path d="M3.98374 26.152C2.22609 25.8 0 25.092 0 23.452C0 21.812 0.340689 21.108 1.98993 19.116C3.63918 17.124 7.79326 13.276 18.5405 7.124C29.2915 0.972 36.7441 0 40.2555 0C43.7669 0 46.806 1.152 49.036 3.584C51.266 6.016 52.1642 8.232 52.1642 14.248C52.1642 20.264 50.7937 24.512 49.2102 29.248C47.6268 33.984 44.9284 40 37.3906 40C31.2234 40 26.6396 36.724 24.4135 35.088C22.1874 33.452 19.9884 31.332 15.451 29.34C10.9137 27.348 3.98761 26.152 3.98761 26.152H3.98374Z" fill="white"/>
</mask>
<g mask="url(#mask3_2493_42844)">
<path d="M31.0066 40.4001C31.0066 40.4001 31.3938 39.6921 31.4364 36.5081C31.4712 33.8481 29.9381 29.6481 26.5119 26.4641C23.8328 23.9721 20.5575 21.5081 15.3775 18.6321C10.4182 15.8801 4.24316 13.3681 4.24316 13.3681L17.4758 6.99609C17.4758 6.99609 28.223 13.5281 33.3566 18.2801C38.8309 23.3561 41.6803 28.2841 43.3527 31.3321C45.0833 34.4841 47.0268 39.0321 47.0268 38.9001C47.0268 38.7681 41.417 43.0161 41.3744 42.8401C41.3318 42.6641 31.0105 40.4081 31.0105 40.4081L31.0066 40.4001Z" fill="#691E5B"/>
</g>
<path d="M60.9747 15.344H65.2875L65.2991 15.952C65.2991 17.012 65.1481 17.752 64.8462 18.172C64.5442 18.592 63.8783 18.8 62.8446 18.8H60.0649C58.8067 18.8 57.9743 18.608 57.5717 18.22C57.1691 17.832 56.9639 16.996 56.9639 15.712V15.332C56.9639 13.996 57.1149 13.08 57.4207 12.58C57.7265 12.08 58.4621 11.832 59.6352 11.832L61.3038 11.812L62.1091 11.8L63.4292 11.852C64.0641 11.852 64.5171 12.016 64.7842 12.344C65.0514 12.672 65.1869 13.184 65.1869 13.872H64.3932C64.3932 13.268 64.2693 12.9 64.0254 12.76C63.7815 12.62 63.3247 12.548 62.6549 12.548L61.3038 12.536L60.5179 12.524L59.2171 12.576C58.7138 12.624 58.3576 12.724 58.1485 12.872C57.9395 13.024 57.8349 13.4 57.8349 14L57.7962 15.764C57.7962 16.504 57.8466 17.068 57.9511 17.452C58.0556 17.84 58.5899 18.032 59.5539 18.032L61.2418 18.052L61.9581 18.064H62.1052C62.411 18.064 62.8098 18.04 63.3053 17.992C63.8009 17.944 64.1145 17.78 64.25 17.5C64.3816 17.22 64.4474 16.728 64.4474 16.02H60.9708V15.332L60.9747 15.344Z" fill="white"/>
<path d="M66.8866 18.7241H65.9458L69.8599 11.8801H70.9245L74.8734 18.7241H73.952L73.0732 17.1841H67.7538L66.8904 18.7241H66.8866ZM68.1371 16.4961H72.6822L70.3941 12.4841L68.1371 16.4961Z" fill="white"/>
<path d="M80.7428 18.724L76.6119 12.576V18.724H75.8066V11.876H77.1152L81.0718 17.744L85.044 11.876H86.3332V18.72H85.5279V12.572L81.3854 18.72H80.7389L80.7428 18.724Z" fill="white"/>
<path d="M89.1861 18.724H88.3809V11.876H89.1861V18.72V18.724Z" fill="white"/>
<path d="M91.2343 18.724V11.876H92.57L98.683 18.064V11.876H99.4883V18.72H98.1681L92.0357 12.5V18.72H91.2305L91.2343 18.724Z" fill="white"/>
<path d="M105.389 15.344H109.702L109.713 15.952C109.713 17.012 109.562 17.752 109.26 18.172C108.958 18.592 108.292 18.8 107.259 18.8H104.479C103.221 18.8 102.388 18.608 101.986 18.22C101.583 17.832 101.378 16.996 101.378 15.712V15.332C101.378 13.996 101.529 13.08 101.835 12.58C102.141 12.08 102.876 11.832 104.049 11.832L105.718 11.812L106.523 11.8L107.843 11.852C108.478 11.852 108.931 12.016 109.198 12.344C109.465 12.672 109.601 13.184 109.601 13.872H108.807C108.807 13.268 108.683 12.9 108.439 12.76C108.196 12.62 107.739 12.548 107.069 12.548L105.718 12.536L104.932 12.524L103.631 12.576C103.128 12.624 102.772 12.724 102.563 12.872C102.354 13.024 102.249 13.4 102.249 14L102.21 15.764C102.21 16.504 102.261 17.068 102.365 17.452C102.47 17.836 103.004 18.032 103.968 18.032L105.656 18.052L106.372 18.064H106.523C106.829 18.064 107.228 18.04 107.723 17.992C108.219 17.944 108.532 17.78 108.668 17.5C108.8 17.22 108.865 16.728 108.865 16.02H105.389V15.332V15.344Z" fill="white"/>
<path d="M62.6859 28.1401L60.9786 28.2001H60.243L58.7718 28.1401C57.591 28.0161 57.0026 27.3641 57.0026 26.1761L56.9639 24.8721C56.9639 24.3521 56.9677 23.9641 56.9794 23.7121C56.991 23.4601 57.0374 23.1041 57.1226 22.6521C57.2078 22.2001 57.4168 21.8561 57.7498 21.6241C58.0827 21.3921 58.5396 21.2761 59.1319 21.2761C59.3952 21.2441 59.6468 21.2241 59.883 21.2161C60.1191 21.2081 60.394 21.2041 60.7115 21.2041H61.9039C62.2871 21.2041 62.6007 21.2121 62.8369 21.2281C63.073 21.2441 63.3866 21.2961 63.7738 21.3801C64.1609 21.4641 64.4319 21.6841 64.5829 22.0441C64.7339 22.4041 64.8113 22.8881 64.8113 23.4921H64.0177V23.4281C64.0177 23.1121 63.9983 22.8521 63.9635 22.6481C63.9286 22.4441 63.8396 22.2961 63.7041 22.2041C63.5686 22.1121 63.3169 22.0441 62.953 21.9921C62.5891 21.9441 62.0858 21.9201 61.4432 21.9201C61.2031 21.9201 60.8431 21.9321 60.3591 21.9561C59.8752 21.9801 59.5113 21.9921 59.2674 21.9921C58.6983 22.0401 58.3344 22.1441 58.1756 22.3081C58.0169 22.4681 57.9162 22.7521 57.8775 23.1481C57.8388 23.5481 57.8156 23.9121 57.8079 24.2361C57.8001 24.5641 57.7962 24.8761 57.7962 25.1721C57.7962 26.0441 57.8814 26.6481 58.0479 26.9801C58.2182 27.3121 58.6634 27.4761 59.3951 27.4761H62.4265C63.0343 27.4761 63.4602 27.4001 63.6963 27.2521C63.9364 27.1041 64.0525 26.7441 64.0525 26.1801V25.9081H64.8888C64.8888 26.7761 64.7571 27.3681 64.49 27.6801C64.2267 27.9921 63.6228 28.1481 62.682 28.1481L62.6859 28.1401Z" fill="#8A8A8A"/>
<path d="M74.2619 25.9919C74.2619 26.9599 74.0761 27.5639 73.7006 27.8039C73.325 28.0439 72.6204 28.1639 71.579 28.1639L70.2472 28.1959L68.3502 28.1639C67.6959 28.1639 67.2159 28.0159 66.9139 27.7159C66.6119 27.4199 66.4609 26.9319 66.4609 26.2519V21.2839H67.2662V26.1359C67.2662 26.6799 67.3862 27.0279 67.6224 27.1839C67.8585 27.3399 68.2689 27.4119 68.8458 27.4119L70.2666 27.4639L71.8074 27.4119C72.4307 27.4119 72.8605 27.3319 73.1005 27.1759C73.3405 27.0199 73.4567 26.6519 73.4567 26.0719V21.2839H74.2619V25.9919Z" fill="#8A8A8A"/>
<path d="M83.7351 23.3041C83.7351 23.9201 83.646 24.3441 83.4718 24.5721C83.2976 24.8001 82.9143 24.9601 82.3259 25.0481C82.7711 25.1081 83.0963 25.2201 83.3054 25.3801C83.5144 25.5401 83.6189 25.8321 83.6189 26.2561V28.1121H82.8253V26.5921C82.8253 26.0841 82.7208 25.7521 82.5117 25.5881C82.3026 25.4241 81.9387 25.3401 81.4238 25.3401H76.9019V28.1121H76.0967V21.2681H81.4896C82.291 21.2681 82.864 21.4081 83.2124 21.6841C83.5609 21.9601 83.7351 22.5001 83.7351 23.3001V23.3041ZM82.8989 23.2521C82.8989 22.7201 82.775 22.3721 82.5311 22.2121C82.2872 22.0521 81.8807 21.9721 81.3193 21.9721H76.8981V24.6601H81.3386C81.9232 24.6601 82.3259 24.5641 82.5543 24.3761C82.7827 24.1881 82.8989 23.8121 82.8989 23.2521Z" fill="#8A8A8A"/>
<path d="M85.1986 28.1199H84.2578L88.1719 21.2759H89.2365L93.1854 28.1199H92.264L91.3852 26.5799H86.0658L85.2025 28.1199H85.1986ZM86.4491 25.8919H90.9942L88.7061 21.8799L86.4491 25.8919Z" fill="#8A8A8A"/>
<path d="M99.4808 28.1399L97.7735 28.1999H97.0379L95.5668 28.1399C94.386 28.0159 93.7975 27.3639 93.7975 26.1759L93.7588 24.8719C93.7588 24.3519 93.7627 23.9639 93.7743 23.7119C93.7859 23.4599 93.8323 23.1039 93.9175 22.6519C94.0027 22.1999 94.2118 21.8559 94.5447 21.6239C94.8776 21.3919 95.3345 21.2759 95.9268 21.2759C96.1901 21.2439 96.4417 21.2239 96.6779 21.2159C96.914 21.2079 97.1889 21.2039 97.5064 21.2039H98.6988C99.0821 21.2039 99.3956 21.2119 99.6318 21.2279C99.868 21.2439 100.182 21.2959 100.569 21.3799C100.956 21.4639 101.227 21.6839 101.378 22.0439C101.529 22.4039 101.606 22.8879 101.606 23.4919H100.813V23.4279C100.813 23.1119 100.793 22.8519 100.758 22.6479C100.724 22.4439 100.635 22.2959 100.499 22.2039C100.364 22.1119 100.112 22.0439 99.7479 21.9919C99.384 21.9439 98.8807 21.9199 98.2381 21.9199C97.998 21.9199 97.638 21.9319 97.1541 21.9559C96.6701 21.9799 96.3062 21.9919 96.0623 21.9919C95.4932 22.0399 95.1293 22.1439 94.9706 22.3079C94.8118 22.4679 94.7112 22.7519 94.6725 23.1479C94.6337 23.5479 94.6105 23.9119 94.6028 24.2359C94.595 24.5639 94.5912 24.8759 94.5912 25.1719C94.5912 26.0439 94.6763 26.6479 94.8428 26.9799C95.0093 27.3119 95.4584 27.4759 96.1901 27.4759H99.2214C99.8292 27.4759 100.255 27.3999 100.491 27.2519C100.731 27.1039 100.847 26.7439 100.847 26.1799V25.9079H101.684C101.684 26.7759 101.552 27.3679 101.285 27.6799C101.022 27.9919 100.418 28.1479 99.4769 28.1479L99.4808 28.1399Z" fill="#8A8A8A"/>
<path d="M103.147 28.1199H102.206L106.12 21.2759H107.185L111.134 28.1199H110.212L109.333 26.5799H104.014L103.151 28.1199H103.147ZM104.397 25.8919H108.942L106.654 21.8799L104.397 25.8919Z" fill="#8A8A8A"/>
<path d="M114.064 21.2H116.995C118.373 21.2 119.256 21.388 119.643 21.768C120.03 22.148 120.224 23.032 120.224 24.42V24.884C120.224 25.376 120.197 25.896 120.139 26.44C120.081 26.984 119.895 27.404 119.573 27.696C119.252 27.992 118.772 28.136 118.129 28.136C117.932 28.156 117.676 28.172 117.371 28.176C117.061 28.184 116.77 28.188 116.492 28.188H114.831C114.428 28.188 114.037 28.1679 113.666 28.1279C113.29 28.0879 112.976 28.0119 112.721 27.8999C112.465 27.7919 112.256 27.5999 112.094 27.3279C111.931 27.0559 111.827 26.7039 111.78 26.2719C111.734 25.8399 111.71 25.328 111.71 24.74C111.71 24.184 111.718 23.784 111.73 23.54C111.741 23.296 111.796 22.948 111.892 22.496C111.989 22.044 112.221 21.712 112.593 21.508C112.965 21.304 113.453 21.2 114.064 21.2ZM114.239 27.432L115.954 27.472H116.782C117.254 27.472 117.727 27.4479 118.207 27.3999C118.687 27.3519 119 27.1879 119.159 26.9119C119.314 26.6359 119.391 26.216 119.391 25.664V24.256C119.391 23.824 119.376 23.448 119.341 23.132C119.306 22.812 119.237 22.568 119.124 22.4C119.012 22.232 118.865 22.124 118.683 22.072C118.501 22.02 118.315 21.988 118.125 21.968C117.936 21.952 117.734 21.9439 117.525 21.9439L115.965 21.924L114.424 21.9439C113.669 21.9439 113.174 22.044 112.934 22.248C112.694 22.452 112.578 22.928 112.578 23.684L112.547 24.716V25.22C112.547 26.084 112.636 26.672 112.814 26.976C112.992 27.28 113.468 27.436 114.239 27.436V27.432Z" fill="#8A8A8A"/>
<path d="M46.1327 15.6721V14.7441H45.6294V14.6401H46.7637V14.7441H46.2566V15.6721H46.1366H46.1327Z" fill="white"/>
<path d="M47.6696 15.672L47.0463 14.744V15.672H46.9263V14.636H47.1237L47.7199 15.524L48.32 14.636H48.5136V15.672H48.3936V14.744L47.7664 15.672H47.6696Z" fill="white"/>
<path d="M23.5929 21.084H30.1201L30.1356 22.22C30.1356 24.2 29.9072 25.58 29.4504 26.364C28.9935 27.148 27.9831 27.54 26.419 27.54H22.2069C20.3021 27.54 19.0439 27.18 18.4322 26.456C17.8205 25.736 17.5146 24.172 17.5146 21.772V21.064C17.5146 18.572 17.7469 16.86 18.2076 15.928C18.6683 14.996 19.7872 14.528 21.5603 14.528L24.0884 14.488L25.3079 14.468L27.3095 14.564C28.2735 14.564 28.9548 14.872 29.3613 15.484C29.7678 16.096 29.9692 17.048 29.9692 18.34H28.7651C28.7651 17.216 28.5793 16.524 28.2076 16.26C27.836 16 27.143 15.868 26.1325 15.868L24.0884 15.848L22.8999 15.828L20.9293 15.924C20.1666 16.012 19.6285 16.2 19.311 16.48C18.9935 16.76 18.8387 17.464 18.8387 18.588L18.7767 21.884C18.7767 23.264 18.8542 24.316 19.009 25.036C19.1639 25.756 19.973 26.12 21.4364 26.12L23.9916 26.16L25.0756 26.18H25.3002C25.7609 26.18 26.3687 26.136 27.1198 26.044C27.8708 25.956 28.347 25.648 28.5483 25.124C28.7496 24.6 28.8503 23.68 28.8503 22.364H23.5851V21.08L23.5929 21.084Z" fill="white" stroke="white" stroke-width="0.8" stroke-miterlimit="10"/>
<path d="M41.177 27.4239L38.5909 27.5399H37.4759L35.2498 27.4239C33.4651 27.1919 32.5708 25.9719 32.5708 23.7599L32.5127 21.3239C32.5127 20.3519 32.5204 19.6279 32.5359 19.1559C32.5514 18.6839 32.625 18.0239 32.7527 17.1799C32.8844 16.3359 33.1979 15.6959 33.7012 15.2599C34.2007 14.8239 34.8975 14.6079 35.7918 14.6079C36.1945 14.5479 36.57 14.5119 36.9262 14.4959C37.2823 14.4799 37.7005 14.4719 38.1805 14.4719H39.9846C40.5653 14.4719 41.0377 14.4879 41.3977 14.5199C41.7578 14.5519 42.2339 14.6479 42.8185 14.7999C43.407 14.9559 43.8135 15.3679 44.0458 16.0439C44.2781 16.7199 44.3904 17.6159 44.3904 18.7439H43.1863V18.6279C43.1863 18.0359 43.1592 17.5519 43.105 17.1719C43.0508 16.7919 42.9192 16.5159 42.714 16.3439C42.5088 16.1719 42.1294 16.0439 41.5797 15.9519C41.0299 15.8599 40.2672 15.8159 39.2955 15.8159C38.9355 15.8159 38.3896 15.8399 37.654 15.8839C36.9223 15.9279 36.3687 15.9519 36.0009 15.9519C35.1375 16.0399 34.5878 16.2399 34.3478 16.5399C34.1077 16.8399 33.9568 17.3639 33.8948 18.1119C33.8329 18.8559 33.798 19.5359 33.7903 20.1439C33.7787 20.7559 33.7748 21.3359 33.7748 21.8879C33.7748 23.5199 33.9026 24.6439 34.1581 25.2599C34.4136 25.8759 35.0911 26.1839 36.1945 26.1839H40.7821C41.7036 26.1839 42.3462 26.0439 42.7063 25.7679C43.0663 25.4919 43.2483 24.8239 43.2483 23.7639V23.2519H44.5104C44.5104 24.8719 44.3091 25.9759 43.9103 26.5559C43.5077 27.1359 42.5979 27.4279 41.1732 27.4279L41.177 27.4239Z" fill="white" stroke="white" stroke-width="0.8" stroke-miterlimit="10"/>
</g>
<defs>
<clipPath id="clip0_2493_42844">
<rect width="120" height="40" fill="white"/>
</clipPath>
</defs>
</svg>
