<svg width="50" height="50" viewBox="0 0 50 50" fill="none" xmlns="http://www.w3.org/2000/svg">
<g clip-path="url(#clip0_2493_42845)">
<path d="M25.0939 40.9457C34.0514 40.9457 41.3128 33.6979 41.3128 24.7574C41.3128 15.8168 34.0514 8.56909 25.0939 8.56909C16.1364 8.56909 8.875 15.8168 8.875 24.7574C8.875 33.6979 16.1364 40.9457 25.0939 40.9457Z" fill="#26467A"/>
<path d="M12.1997 23.9995C12.1997 23.9995 12.3952 23.8419 12.2448 23.8419C12.0945 23.8419 11.2899 23.8419 11.2072 23.8419C11.1245 23.8419 11.0343 23.9544 10.9666 23.9695C10.8989 23.9845 10.6658 24.082 10.6282 24.1271C10.5906 24.1721 10.4478 24.1871 10.4478 24.4648C10.4478 24.7425 10.4478 25.9208 10.4478 26.0408C10.4478 26.1609 10.5831 26.1234 10.5831 26.266C10.5831 26.4086 10.5906 26.8964 10.5981 26.9489C10.6057 27.0015 10.7109 27.0315 10.7034 27.1065C10.6959 27.1816 10.6809 27.3842 10.726 27.4593C10.7711 27.5343 10.726 27.6169 10.8688 27.6244C11.0117 27.6319 11.2974 27.6769 11.2974 27.6769C11.2974 27.6769 11.3092 27.7295 11.3747 27.7745C11.4403 27.8195 11.5531 27.9171 11.6358 27.9096C11.7185 27.9021 11.914 27.9321 11.9892 27.767C12.0644 27.6019 12.0117 27.4743 12.0869 27.4142C12.1621 27.3542 12.3426 27.2491 12.3576 27.1666C12.3727 27.084 12.4779 27.0015 12.493 26.8289C12.508 26.6562 12.523 26.5662 12.5757 26.5287C12.6283 26.4911 12.6509 26.4086 12.6509 26.3035C12.6509 26.1984 12.6659 25.9883 12.7035 25.9207C12.7411 25.8532 12.9216 25.7556 12.9516 25.6656C12.9817 25.5755 12.9892 25.523 13.0419 25.4779C13.0945 25.4329 13.1697 25.3729 13.1622 25.1627C13.1547 24.9526 13.0569 24.9976 13.0494 24.9226C13.0419 24.8475 13.0419 24.6974 13.0343 24.5623C13.0268 24.4272 13.0343 24.3747 13.0795 24.2922C13.1246 24.2096 13.1707 24.2246 13.1627 24.0745C13.1547 23.9244 13.2234 23.7968 13.1627 23.7818C13.102 23.7668 12.8464 23.7818 12.8464 23.7818C12.8464 23.7818 12.8013 23.9694 12.7937 24.0445C12.7862 24.1195 12.7561 24.2621 12.711 24.3072C12.6659 24.3522 12.6358 24.3297 12.6133 24.4347C12.5907 24.5398 12.5381 24.5698 12.523 24.6149C12.508 24.6599 12.493 24.7178 12.4779 24.8014C12.4629 24.885 12.4629 24.9901 12.4103 25.0351C12.3576 25.0802 12.3275 25.0802 12.2824 25.1252C12.2373 25.1702 12.2448 25.1627 12.1847 25.1928C12.1245 25.2228 12.132 25.2303 12.0869 25.2453C12.0418 25.2603 12.1546 25.2978 12.0418 25.2603C11.929 25.2228 11.9741 25.3203 11.929 25.2228C11.8839 25.1252 11.812 25.1177 11.8179 25.0577C11.8238 24.9976 11.7819 25.0352 11.8179 24.9376C11.8538 24.84 11.8614 24.7575 11.8764 24.6974C11.8914 24.6374 11.9065 24.6299 11.8914 24.5323C11.8764 24.4348 11.8313 24.4348 11.9215 24.3372C12.0118 24.2396 12.1997 23.9995 12.1997 23.9995Z" fill="white"/>
<path d="M11.8982 22.8885C12.0035 22.9861 11.9734 23.0762 12.2592 23.0762C12.5449 23.0762 12.9208 23.0762 13.0336 23.0762C13.1464 23.0762 13.2667 22.9936 13.2818 22.8885C13.2968 22.7835 13.2216 22.7609 13.1539 22.7084C13.0863 22.6559 12.8983 22.5808 12.8231 22.5808C12.7479 22.5808 12.0336 22.6033 12.011 22.5808C11.9885 22.5583 11.8714 22.4908 11.8171 22.4682C11.7629 22.4457 11.6351 22.4382 11.605 22.4382C11.5749 22.4382 11.5298 22.4983 11.5298 22.5958C11.5298 22.6934 11.5674 22.806 11.62 22.836C11.6727 22.866 11.8982 22.8885 11.8982 22.8885Z" fill="white"/>
<path d="M21.771 23.9619C21.9358 23.9471 22.0267 23.8869 21.9891 23.7593C21.9515 23.6317 21.8086 23.5716 21.771 23.4215C21.7334 23.2714 21.8843 23.0463 21.8843 23.0463H22.9816C22.9816 23.0463 23.0568 23.5491 23.1696 23.6617C23.2824 23.7743 23.6508 23.8793 23.7035 23.9244C23.7561 23.9694 23.899 23.9244 23.7937 23.8343C23.6884 23.7443 23.5681 23.4891 23.5681 23.3165C23.5681 23.1439 23.5681 22.8211 23.5681 22.7536C23.5681 22.686 23.6959 22.4834 23.7937 22.4459C23.8914 22.4084 23.9365 22.3858 24.0569 22.3333C24.1772 22.2808 24.2072 22.3108 24.2072 22.2057C24.2072 22.1007 24.3426 21.898 24.3576 21.6804C24.3727 21.4627 24.3727 21.2076 24.4403 21.125C24.508 21.0425 24.5982 21.035 24.7336 21.0274C24.8689 21.0199 25.0762 21.0199 25.1042 20.9674C25.1321 20.9149 25.2449 20.8924 25.3502 20.8849C25.4554 20.8774 25.7562 20.9149 25.8239 20.8849C25.8915 20.8548 25.9367 20.7423 26.0645 20.7348C26.1923 20.7272 26.3652 20.8248 26.3878 20.7348C26.4104 20.6447 26.4104 20.5471 26.3502 20.4571C26.2901 20.367 26.2374 20.2319 26.2073 20.1944C26.1773 20.1569 26.1472 20.0443 26.0645 20.0443C25.9818 20.0443 25.7487 19.9242 25.8013 19.8267C25.8539 19.7291 25.9667 19.6615 25.9667 19.6615C25.9667 19.6615 26.1021 19.6991 26.072 19.579C26.0419 19.4589 26.087 19.2638 26.057 19.2263C26.0269 19.1887 25.9517 19.1662 25.8539 19.0762C25.7562 18.9861 25.681 18.851 25.6359 18.7835C25.5908 18.7159 25.3426 18.2281 25.29 18.153C25.2374 18.078 25.0118 17.9279 24.899 18.0855C24.7862 18.2431 23.9516 19.1587 23.8313 19.2563C23.711 19.3538 23.6283 19.3538 23.6132 19.4589C23.5982 19.564 23.5004 19.684 23.3801 19.7816C23.2598 19.8792 23.0042 20.1118 23.0192 19.9242C23.0342 19.7366 23.0493 19.6315 23.0192 19.4439C22.9891 19.2563 23.0192 19.2262 22.8914 19.0837C22.7636 18.9411 22.7485 18.9486 22.7184 18.8285C22.6884 18.7084 22.7861 18.4908 22.8237 18.4382C22.8613 18.3857 23.1395 18.3482 23.1546 18.183C23.1696 18.0179 23.1395 17.9429 23.1019 17.8603C23.0643 17.7778 23.1019 17.6502 23.1771 17.5676C23.2523 17.4851 23.6207 17.4476 23.8087 17.1924C23.9967 16.9372 23.9441 16.7046 23.9967 16.607C24.0493 16.5094 23.9971 16.3743 24.0833 16.2693C24.1696 16.1642 24.2072 16.0516 24.2223 16.0066C24.2373 15.9616 24.32 15.9391 24.2824 15.849C24.2448 15.7589 24.1772 15.7589 24.1772 15.6689C24.1772 15.5788 24.1847 15.3236 24.2072 15.3236C24.2298 15.3236 24.3877 15.1885 24.4027 15.1135C24.4178 15.0385 24.2749 14.9184 24.3651 14.8208C24.4554 14.7232 24.5456 14.6407 24.6208 14.7307C24.696 14.8208 25.0569 15.121 25.0719 15.151C25.087 15.181 25.0161 15.7739 25.1042 15.849C25.1923 15.924 25.4404 15.9841 25.4329 16.2618C25.4253 16.5394 25.2524 16.6445 25.1772 16.7496C25.102 16.8547 25.0344 17.1774 25.1547 17.2374C25.275 17.2975 25.4178 17.35 25.5231 17.4476C25.6284 17.5451 25.7186 17.6802 25.8163 17.7252C25.9141 17.7703 26.0494 17.7402 26.0946 17.5526C26.1397 17.365 26.1472 17.2524 26.1848 17.1323C26.2224 17.0123 26.1998 16.9522 26.2976 16.8922C26.3953 16.8321 26.5833 16.7721 26.5758 16.5995C26.5683 16.4269 26.4856 15.939 26.3728 15.7589C26.26 15.5788 26.2224 15.5488 26.1848 15.4587C26.1472 15.3687 26.1322 15.3311 26.1021 15.2936C26.072 15.2561 25.9893 15.2486 25.9291 15.196C25.869 15.1435 25.6885 15.1435 25.6584 15.0985C25.6284 15.0535 25.5983 15.0535 25.5306 14.9784C25.4629 14.9034 25.4178 14.8133 25.3727 14.7833C25.3276 14.7533 25.2975 14.7434 25.305 14.692C25.3126 14.6407 25.3802 14.4831 25.5306 14.4005C25.681 14.318 25.8765 14.2729 25.9893 14.2879C26.1021 14.303 26.2449 14.363 26.2976 14.3255C26.3502 14.2879 26.5983 14.1228 26.651 14.1078C26.7036 14.0928 26.7713 14.0178 26.8389 14.0403C26.9066 14.0628 27.2224 14.0361 27.2525 14.0361C27.2826 14.0361 27.3051 14.2129 27.1848 14.2954C27.0645 14.378 26.8314 14.5281 26.7713 14.6932C26.7111 14.8583 26.666 15.0685 26.7337 15.2036C26.8014 15.3386 27.042 15.4287 27.1698 15.4512C27.2976 15.4737 27.4555 15.3161 27.4856 15.3987C27.5157 15.4812 27.6435 15.6989 27.5683 15.7814C27.4931 15.864 27.4856 16.2918 27.6585 16.5169C27.8315 16.7421 28.1097 17.2299 28.2225 17.4175C28.3353 17.6052 29.0045 18.1155 29.0421 18.2131C29.0797 18.3106 29.3804 18.5208 29.4707 18.4983C29.5609 18.4757 29.5759 18.4607 29.5684 18.4082C29.5609 18.3557 29.5158 18.1755 29.4406 18.0705C29.3654 17.9654 29.3729 17.8453 29.388 17.7402C29.403 17.6352 29.418 17.5451 29.4256 17.4626C29.4331 17.38 29.4064 17.2899 29.5701 17.1474C29.7338 17.0048 29.7338 16.8622 29.8391 16.7796C29.9444 16.6971 29.9068 16.5695 29.8767 16.4644C29.8466 16.3593 29.8166 16.3668 29.7714 16.3068C29.7263 16.2468 29.7113 16.2543 29.6887 16.1942C29.6662 16.1342 29.5534 15.924 29.606 15.8115C29.6586 15.6989 29.6286 15.6088 29.6286 15.6088C29.6286 15.6088 29.8729 15.5263 29.9087 15.4962C29.9444 15.4662 29.9406 15.1585 29.9087 15.061C29.8767 14.9634 29.7564 14.8658 29.7263 14.7683C29.6962 14.6707 29.8015 14.5506 29.7038 14.5431C29.606 14.5356 29.5459 14.5281 29.591 14.4681C29.6361 14.408 29.8541 14.303 29.9669 14.1679C30.0797 14.0328 30.1399 13.9427 30.1098 13.8451C30.0797 13.7476 29.7865 13.4399 29.6962 13.3723C29.606 13.3048 29.4707 13.1772 29.418 13.0871C29.3654 12.9971 29.3654 12.892 29.1925 12.8095C29.0195 12.7269 28.9443 12.6518 28.8541 12.6969C28.7639 12.7419 28.6511 12.877 28.5684 12.8845C28.4857 12.892 28.3278 12.9295 28.3202 12.8695C28.3127 12.8094 28.23 12.7944 28.1247 12.817C28.0195 12.8395 27.9593 12.937 27.9292 13.0271C27.8992 13.1172 27.6435 13.5074 27.5458 13.59C27.448 13.6725 27.1021 13.62 27.0345 13.6275C26.9668 13.635 26.681 13.6275 26.6585 13.62C26.6359 13.6125 26.2901 13.3723 26.1848 13.3423C26.0795 13.3123 25.869 13.1772 25.6058 13.3723C25.3426 13.5675 25.1396 13.7326 24.9592 13.7251C24.7787 13.7176 24.6734 13.7176 24.6358 13.8151C24.5982 13.9127 24.5306 13.9877 24.508 14.0102C24.4854 14.0328 24.3125 14.1228 24.2523 14.1153C24.1922 14.1078 24.0493 14.0703 24.0493 14.0703C24.0493 14.0703 23.9741 14.0102 23.9441 14.0178C23.914 14.0253 23.8914 14.1003 23.8989 14.1303C23.9065 14.1603 23.6508 14.4305 23.5982 14.6857C23.5455 14.9409 23.6583 15.2186 23.711 15.3086C23.7636 15.3987 23.7636 15.5188 23.741 15.5338C23.7185 15.5488 23.7034 15.5263 23.6583 15.5938C23.6132 15.6614 23.6433 15.6914 23.5906 15.7289C23.538 15.7664 23.5305 15.7589 23.4703 15.7964C23.4102 15.834 23.4628 15.804 23.35 15.864C23.2372 15.924 23.3726 15.8865 23.1395 15.9766C22.9064 16.0666 22.929 16.1342 22.7485 16.1267C22.568 16.1192 22.3876 15.9916 22.2823 15.9315C22.177 15.8715 22.0718 15.834 22.0492 15.8415C22.0266 15.849 21.7936 15.8715 21.6883 15.894C21.583 15.9165 21.3725 15.894 21.3349 15.849C21.2973 15.804 21.2296 15.7289 21.2071 15.6539C21.1845 15.5788 21.1018 15.2261 20.8988 15.181C20.6958 15.136 20.5379 15.121 20.5228 15.0459C20.5078 14.9709 20.4927 14.8058 20.4025 14.7157C20.3123 14.6257 20.2145 14.5131 20.222 14.4155C20.2296 14.318 20.019 13.8827 19.8085 13.7926C19.598 13.7025 19.0491 13.7101 18.8987 13.7101C18.7483 13.7101 18.0039 14.0553 17.7633 14.3555C17.5227 14.6557 17.455 14.6857 17.3723 14.7157C17.2896 14.7457 17.0941 14.7307 17.1317 14.8808C17.1693 15.0309 16.9738 15.0985 17.1843 15.2561C17.3948 15.4137 17.7182 15.4287 17.7257 15.5037C17.7332 15.5788 17.9061 15.4587 17.9212 15.7439C17.9362 16.0291 17.7482 16.0291 17.9588 16.1942C18.1693 16.3593 18.3197 16.4043 18.4175 16.607C18.5152 16.8096 18.6581 16.9222 18.6505 17.0573C18.643 17.1924 18.7859 17.3725 18.8235 17.4626C18.8611 17.5526 18.9212 17.7252 18.8912 17.8828C18.8611 18.0404 18.6957 18.183 18.6806 18.4007C18.6656 18.6183 18.643 18.7834 18.6957 18.8135C18.7483 18.8435 18.846 18.926 18.9889 19.0386C19.1318 19.1512 19.1318 19.2638 19.0491 19.3688C18.9664 19.4739 18.8837 19.654 18.831 19.7816C18.7784 19.9092 18.831 20.2919 18.831 20.457C18.831 20.6222 18.9513 21.4552 19.0791 21.6203C19.207 21.7854 19.4325 22.2132 19.4852 22.3183C19.5378 22.4234 19.6356 22.1757 19.6581 22.0256C19.6807 21.8755 19.8386 21.6804 19.9138 21.7479C19.989 21.8155 20.0341 22.0331 20.019 22.2357C20.004 22.4384 20.1469 23.1288 20.5303 23.3915C20.9138 23.6542 21.2372 23.8118 21.3575 23.8568C21.4778 23.9019 21.6876 23.9694 21.771 23.9619Z" fill="white"/>
<path d="M22.5967 15.4138C22.5967 15.4138 22.4764 15.1586 22.5967 15.0685C22.717 14.9785 22.7697 14.8134 22.8373 14.6858C22.905 14.5582 22.9802 14.4081 22.9952 14.333C23.0103 14.258 23.0178 14.2355 22.89 14.273C22.7622 14.3105 22.6711 14.2955 22.57 14.303C22.4689 14.3105 22.3787 14.3481 22.296 14.288C22.2132 14.228 22.1456 14.288 22.123 14.1229C22.1005 13.9578 22.0779 13.8527 22.0553 13.7927C22.0328 13.7326 21.9426 13.7477 22.0102 13.6051C22.0779 13.4625 21.9802 13.3649 22.123 13.3049C22.2659 13.2448 22.6644 13.1623 22.5817 13.0647C22.499 12.9671 22.6494 13.0347 22.3035 12.8696C21.9576 12.7045 22.0553 12.7149 21.935 12.6834C21.8147 12.6519 21.7095 12.6894 21.6869 12.727C21.6643 12.7645 21.5666 12.8245 21.4839 12.8696C21.4012 12.9146 21.3636 12.9671 21.2658 12.9821C21.1681 12.9972 21.138 12.9521 21.0478 13.0722C20.9575 13.1923 20.8297 13.3499 20.7395 13.515C20.6492 13.6801 20.6267 13.8152 20.6492 13.8152C20.6718 13.8152 21.4312 13.8152 21.4312 13.8152C21.4312 13.8152 21.3485 14.1004 21.2658 14.1904C21.1831 14.2805 20.8974 14.4756 20.9275 14.5882C20.9575 14.7008 20.9199 14.7533 20.9199 14.7533H21.4538C21.4538 14.7533 21.4764 14.7833 21.5064 14.8809C21.5365 14.9785 21.5215 15.046 21.6192 15.1811C21.717 15.3162 21.9426 15.2562 21.9801 15.2637C22.0177 15.2712 22.2208 15.2411 22.2208 15.2411C22.2208 15.2411 22.3486 15.3537 22.4539 15.4138C22.5591 15.4738 22.5967 15.4138 22.5967 15.4138Z" fill="white"/>
<path d="M23.4246 13.9877C23.4246 13.9502 23.5148 13.74 23.4848 13.5899C23.4547 13.4398 23.3043 13.4098 23.2066 13.3873C23.1088 13.3648 22.9584 13.2897 22.8832 13.2822C22.808 13.2747 22.7629 13.2672 22.808 13.3573C22.8532 13.4473 22.937 13.62 23.0041 13.695C23.0712 13.7701 23.1013 13.8676 23.2066 13.9127C23.3118 13.9577 23.4246 13.9877 23.4246 13.9877Z" fill="white"/>
<path d="M17.8527 13.0121C17.8527 13.0121 17.9881 12.7569 18.1234 12.6293C18.2588 12.5018 18.3189 12.3367 18.4317 12.2616C18.5445 12.1866 18.6949 12.0365 18.7099 11.9839C18.725 11.9314 18.8302 11.7813 18.7099 11.8038C18.5896 11.8263 18.4994 11.7813 18.3716 11.8713C18.2437 11.9614 17.9881 12.0515 17.8527 12.1415C17.7174 12.2316 17.3715 12.4117 17.3038 12.4567C17.2362 12.5018 17.1459 12.5543 17.2437 12.5918C17.3414 12.6293 17.4392 12.7194 17.5219 12.817C17.6046 12.9145 17.8527 13.0121 17.8527 13.0121Z" fill="white"/>
<path d="M15.387 14.4081C15.4171 14.3255 15.4396 14.2355 15.4321 14.1754C15.4246 14.1154 15.3795 14.0192 15.3043 14.056C15.2291 14.0929 15.1088 14.2204 15.0937 14.243C15.0787 14.2655 15.0186 14.3555 14.9734 14.3781C14.9283 14.4006 14.8682 14.4231 14.8607 14.4756C14.8531 14.5282 14.8607 14.5507 14.8231 14.5732C14.7855 14.5957 14.8231 14.5882 14.7178 14.6407C14.6125 14.6933 14.6576 14.6783 14.5824 14.7308C14.5073 14.7833 14.5148 14.7833 14.4471 14.8359C14.3794 14.8884 14.4396 14.8584 14.3118 14.986C14.1839 15.1136 14.0561 15.1811 14.0335 15.2336C14.011 15.2862 14.011 15.2186 13.9584 15.3912C13.9057 15.5639 13.9057 15.5714 13.7854 15.6989C13.6651 15.8265 13.5598 15.9841 13.6726 15.9316C13.7854 15.8791 13.8456 15.774 13.9809 15.6839C14.1163 15.5939 14.199 15.5413 14.2666 15.4888C14.3343 15.4363 14.2516 15.5638 14.4095 15.3987C14.5674 15.2336 14.4697 15.3387 14.5674 15.2336C14.6652 15.1286 14.5674 15.1961 14.7479 15.0535C14.9283 14.9109 14.8231 15.001 14.9659 14.8884C15.1088 14.7758 15.0712 14.7758 15.1313 14.7383C15.1915 14.7008 15.199 14.7458 15.2291 14.6783C15.2592 14.6107 15.1614 14.7308 15.2592 14.6107C15.3569 14.4906 15.2216 14.4081 15.3043 14.4081C15.387 14.4081 15.387 14.4081 15.387 14.4081Z" fill="white"/>
<path d="M30.514 18.6634C30.5441 18.6259 30.6418 18.5208 30.6869 18.4758C30.7321 18.4307 30.7847 18.4608 30.7546 18.3782C30.7245 18.2956 30.7997 18.138 30.8373 18.1681C30.8749 18.1981 31.0479 18.2281 31.1155 18.2656C31.1832 18.3032 31.2434 18.3782 31.1757 18.4457C31.108 18.5133 30.8824 18.7084 30.8073 18.7685C30.7321 18.8285 30.5967 18.8285 30.5666 18.8285C30.5366 18.8285 30.3561 18.851 30.3862 18.776C30.4163 18.7009 30.514 18.6634 30.514 18.6634Z" fill="white"/>
<path d="M31.206 21.2074C31.2515 21.0948 31.2816 21.0423 31.2741 20.9523C31.2665 20.8622 31.2689 20.7646 31.2752 20.6971C31.2816 20.6295 31.229 20.607 31.1688 20.6295C31.1086 20.652 31.056 20.7637 31.0184 20.9143C30.9808 21.0648 30.9808 21.2975 30.9583 21.35C30.9357 21.4026 30.8831 21.4701 30.8755 21.5527C30.868 21.6352 30.8004 21.6877 30.8455 21.7403C30.8906 21.7928 31.0047 21.8153 31.0529 21.7928C31.1011 21.7703 31.1755 21.8303 31.206 21.6953C31.2365 21.5602 31.206 21.2074 31.206 21.2074Z" fill="white"/>
<path d="M31.7026 20.5095C31.6801 20.4945 31.6349 20.4044 31.65 20.3444C31.665 20.2844 31.7177 20.1718 31.7853 20.0742C31.853 19.9767 31.9357 19.7665 32.041 19.789C32.1462 19.8115 32.1312 19.7965 32.1387 19.9241C32.1463 20.0517 32.1011 20.6052 32.1387 20.6211C32.1763 20.6371 32.1914 20.6521 32.259 20.6971C32.3267 20.7422 32.2966 20.8697 32.4019 20.9373C32.5072 21.0048 32.5297 21.1249 32.5297 21.1249C32.5297 21.2075 32.5147 21.3576 32.4696 21.4401C32.4245 21.5227 32.4094 21.5902 32.3793 21.5377C32.3493 21.4852 32.3944 21.4476 32.3267 21.4326C32.259 21.4176 32.2365 21.4026 32.1914 21.4326C32.1462 21.4626 32.056 21.5002 31.9883 21.5152C31.9207 21.5302 31.8455 21.5977 31.7853 21.6127C31.7252 21.6278 31.6725 21.5827 31.7327 21.4927C31.7928 21.4026 31.853 21.23 31.8605 21.1399C31.868 21.0499 31.8906 20.8998 31.853 20.8622C31.8154 20.8247 31.7101 20.8247 31.7327 20.7422C31.7552 20.6596 31.7402 20.532 31.7402 20.532L31.7026 20.5095Z" fill="white"/>
<path d="M32.9739 21.1476C32.9664 20.7123 33.1393 20.4797 33.1995 20.3896C33.2597 20.2995 33.2897 20.202 33.4552 20.1569C33.6206 20.1119 33.6657 20.0894 33.7634 20.0218C33.8612 19.9543 34.0116 19.7892 34.0717 19.7367C34.1319 19.6841 34.192 19.5265 34.2071 19.504C34.2221 19.4815 34.4101 19.3989 34.4176 19.1963C34.4251 18.9937 34.4251 18.8361 34.5003 18.7085C34.5755 18.5809 34.6206 18.3407 34.7334 18.1981C34.8462 18.0555 34.9064 17.8004 35.0267 17.6728C35.147 17.5452 35.1996 17.4927 35.2146 17.4476C35.2297 17.4026 35.1695 17.0649 35.2146 16.8998C35.2598 16.7347 35.3049 16.7347 35.335 16.5996C35.365 16.4645 35.1846 16.1042 35.1545 16.0667C35.1244 16.0292 35.177 16.0367 35.0191 16.1943C34.8612 16.3519 34.8236 16.4119 34.7485 16.562C34.6733 16.7121 34.5981 16.7647 34.6056 16.8472C34.6131 16.9298 34.4702 17.29 34.4552 17.4026C34.4402 17.5152 34.4176 17.5077 34.3349 17.6202C34.2522 17.7328 34.3123 17.7328 34.2296 17.8454C34.1469 17.958 34.1394 18.003 34.1018 18.048C34.0642 18.0931 34.1244 18.0781 34.0417 18.1644C33.9589 18.2507 33.8913 18.323 33.8913 18.323L33.8161 18.4158C33.8161 18.4158 33.786 18.5546 33.771 18.5978C33.7559 18.6409 33.8311 18.701 33.7634 18.7685C33.6958 18.8361 33.7258 18.761 33.6507 18.9261C33.5755 19.0912 33.6657 19.2939 33.6055 19.3839C33.5454 19.474 33.5003 19.5941 33.5003 19.444C33.5003 19.2939 33.4777 19.2789 33.4401 19.2188C33.4025 19.1588 33.3198 19.1588 33.2972 19.1288C33.2747 19.0987 33.2672 19.0837 33.207 19.0837C33.1469 19.0837 33.019 19.1813 33.019 19.1813C33.019 19.1813 32.8386 19.429 32.801 19.429C32.7634 19.429 32.7859 19.3314 32.801 19.1363C32.816 18.9411 32.9438 18.6709 32.9514 18.6334C32.9589 18.5959 32.9063 18.4458 32.9814 18.3557C33.0566 18.2657 33.1393 18.1981 33.1769 18.048C33.2145 17.8979 33.2973 17.8379 33.3499 17.7253C33.4025 17.6127 33.4852 17.6503 33.4476 17.5377C33.41 17.4251 33.4025 16.9598 33.4702 16.8697C33.5379 16.7797 33.5228 16.6971 33.6206 16.6146C33.7183 16.532 33.6281 16.5245 33.771 16.517C33.9138 16.5095 34.0846 16.4269 34.0594 16.2994C34.0341 16.1718 33.9138 16.1192 33.974 16.0142C34.0341 15.9091 34.1244 15.819 34.162 15.699C34.1996 15.5789 34.1394 15.2787 34.2447 15.1511C34.3499 15.0235 34.3424 14.7383 34.3875 14.6633C34.4327 14.5882 34.3199 14.318 34.3875 14.1829C34.4552 14.0479 34.3349 13.6876 34.4703 13.7477C34.6056 13.8077 35.0041 14.258 35.162 14.3856C35.3199 14.5132 35.6132 14.8659 35.7636 14.9935C35.9139 15.1211 36.2373 15.3162 36.147 15.4663C36.0568 15.6164 35.9365 15.6614 35.8538 15.744C35.7711 15.8265 35.7485 15.819 35.7335 15.9391C35.7184 16.0592 35.7936 16.2393 35.7636 16.3294C35.7335 16.4194 35.741 16.5245 35.7109 16.5395C35.6808 16.5545 35.6432 16.7422 35.6808 16.7422C35.7184 16.7422 35.8087 16.8172 35.929 16.7046C36.0493 16.5921 36.0267 16.6896 36.1019 16.532C36.1771 16.3744 36.1621 16.4194 36.2147 16.2468C36.2673 16.0742 36.3726 15.8115 36.4177 15.804C36.4628 15.7965 36.6583 15.9391 36.6659 16.0517C36.6734 16.1643 36.6283 16.1343 36.8087 16.2844C36.9892 16.4345 37.1396 16.7797 37.2148 16.8998C37.2899 17.0198 37.6509 17.5602 37.8313 17.7929C38.0118 18.0255 38.2524 18.3627 38.2299 18.498C38.2073 18.6334 38.1727 18.8736 38.2313 18.9261C38.29 18.9787 38.5156 19.3389 38.5682 19.474C38.6208 19.6091 38.8314 20.0294 38.8615 20.1194C38.8915 20.2095 38.9968 20.7273 39.087 20.8849C39.1773 21.0425 39.2224 21.1851 39.2224 21.2677C39.2224 21.3502 39.1622 21.2977 39.2224 21.4103C39.2825 21.5229 39.2449 21.7855 39.3051 21.8756C39.3652 21.9656 39.3277 22.0257 39.3427 22.1158C39.3577 22.2058 39.3953 22.3484 39.4555 22.4235C39.5156 22.4985 39.5382 22.536 39.5307 22.6636C39.5231 22.7912 39.4931 23.0389 39.5683 23.1289C39.6435 23.219 39.6585 23.3241 39.651 23.4366C39.6435 23.5492 39.6134 23.8194 39.5683 23.7443C39.5232 23.6693 39.4705 23.5342 39.3427 23.4366C39.2149 23.3391 39.2073 23.3391 39.1096 23.309C39.0118 23.279 38.6885 23.3391 38.6885 23.3391C38.6885 23.3391 38.7186 23.6802 38.7036 23.7573C38.6885 23.8344 38.666 23.8881 38.7712 23.9626C38.8765 24.037 38.8915 24.052 38.9066 24.1646C38.9216 24.2772 38.9216 24.2772 38.9667 24.3372C39.0119 24.3973 39.1622 24.4798 39.3502 24.4798C39.5382 24.4798 39.7372 24.6299 39.6527 24.9827C39.5683 25.3354 39.7638 26.1384 39.4254 27.7895C39.087 29.4406 38.4028 31.1893 37.9065 32.0449C37.4103 32.9004 37.2448 33.2156 37.102 33.1931C36.9591 33.1706 36.8238 33.0956 36.8313 32.8629C36.8388 32.6303 36.8388 32.4426 36.8914 32.3C36.9441 32.1574 36.929 32.0524 36.9892 31.8722C37.0493 31.6921 36.9666 31.4445 37.0343 31.3244C37.102 31.2043 37.1997 30.8516 37.2072 30.6264C37.2148 30.4013 37.1847 29.9209 37.1922 29.7859C37.1997 29.6508 37.1396 29.5607 37.2524 29.4706C37.3651 29.3806 37.5757 29.1479 37.6208 28.9528C37.6659 28.7577 37.5381 28.6826 37.4855 28.6226C37.4328 28.5625 37.1696 28.6226 37.0869 28.6976C37.0042 28.7727 36.7636 29.0053 36.6132 29.0954C36.4628 29.1855 36.32 29.4781 35.726 29.3431C35.1319 29.208 35.0342 29.283 34.7861 29.1629C34.5379 29.0429 34.4251 28.9978 34.3199 28.9003C34.2146 28.8027 34.3123 28.8252 34.0642 28.7352C33.8161 28.6451 33.7634 28.6976 33.4627 28.4875C33.1619 28.2774 32.628 27.9997 32.5529 27.9396C32.4777 27.8796 32.2371 27.6169 32.207 27.5794C32.1769 27.5419 32.1844 27.5193 32.0792 27.4143C31.9739 27.3092 31.9664 27.3467 31.9213 27.2267C31.8761 27.1066 32.0641 27.0015 31.8837 26.7088C31.7032 26.4161 31.6656 26.2735 31.7182 26.206C31.7709 26.1384 31.8235 26.1009 31.7483 25.9808C31.6731 25.8607 31.5979 25.9733 31.6806 25.7782C31.7633 25.5831 31.7408 25.4255 31.7934 25.3354C31.8461 25.2453 31.7633 25.3279 31.8686 25.1553C31.9739 24.9827 31.9513 25.0202 31.9889 24.9151C32.0265 24.81 31.9784 24.825 32.0889 24.6599C32.1995 24.4948 32.2521 24.4648 32.3122 24.3823C32.3724 24.2997 32.9213 23.9695 33.2221 23.9169C33.5228 23.8644 33.7409 23.7593 33.786 23.7293C33.8311 23.6993 33.9665 23.6693 34.0567 23.6918C34.1469 23.7143 34.3951 23.6618 34.6958 23.6843C34.9966 23.7068 35.1846 23.7593 35.3575 23.6468C35.5305 23.5342 35.7184 23.6092 35.944 23.3316C36.1696 23.0539 36.0418 22.8362 36.1846 22.8362C36.3275 22.8362 36.4478 22.9038 36.6659 22.9788C36.8839 23.0539 36.8012 23.1589 37.1847 23.1439C37.5682 23.1289 37.7862 23.1739 37.7637 23.0238C37.7411 22.8737 37.8088 22.8512 37.7411 22.8212C37.6734 22.7912 37.5832 22.8287 37.5832 22.7011C37.5832 22.5735 37.5757 22.2808 37.6133 22.2283C37.6509 22.1758 37.7186 22.2208 37.711 22.0632C37.7035 21.9056 37.6659 21.8254 37.7336 21.8017C37.8013 21.778 37.8013 21.778 37.8013 21.778C37.8013 21.778 37.7411 21.748 37.711 21.6504C37.681 21.5529 37.7186 21.3427 37.5982 21.3727C37.4779 21.4028 37.4253 21.4028 37.3651 21.4628C37.305 21.5228 37.3426 21.4853 37.2298 21.5679C37.117 21.6504 37.0719 21.6654 36.9591 21.763C36.8463 21.8606 36.9516 22.0107 36.726 22.0557C36.5004 22.1007 36.3651 22.1983 36.4177 22.0557C36.4704 21.9131 36.4328 21.8005 36.5004 21.7405C36.5681 21.6805 36.6283 21.5904 36.7335 21.4853C36.8388 21.3803 36.8689 21.3652 36.8689 21.2677C36.8689 21.1701 36.8087 21.1401 36.7862 21.1476C36.7636 21.1551 36.6583 21.0951 36.6884 21.0951C36.7185 21.0951 36.914 21.0951 36.9441 20.975C36.9742 20.8549 36.8839 20.93 36.9742 20.8549C37.0644 20.7799 37.1471 20.6373 37.2223 20.5622C37.2975 20.4872 37.2223 20.5022 37.32 20.4271C37.4178 20.3521 37.3276 20.307 37.4779 20.247C37.6283 20.187 37.7561 20.217 37.7486 20.0669C37.7411 19.9168 37.8013 19.6391 37.7862 19.5715C37.7712 19.504 37.6659 19.5791 37.6434 19.489C37.6208 19.3989 37.4855 19.3464 37.4554 19.3689C37.4253 19.3914 37.4629 19.444 37.3426 19.4365C37.2223 19.429 37.1922 19.4139 37.0418 19.429C36.8914 19.444 36.6283 19.429 36.6057 19.474C36.5832 19.519 36.5155 19.4965 36.523 19.6091C36.5305 19.7217 36.4027 19.7367 36.5004 19.9093C36.5982 20.0819 36.6208 20.0894 36.6283 20.3221C36.6358 20.5547 36.6659 20.7048 36.6433 20.8324C36.6208 20.96 36.7711 21.0275 36.538 21.1026C36.3049 21.1776 36.2974 21.1779 36.2147 21.2115C36.132 21.2452 36.147 21.3052 36.1019 21.3427C36.0568 21.3803 36.0944 21.4178 35.9741 21.5003C35.8538 21.5829 35.8388 21.5135 35.7936 21.6158C35.7485 21.718 35.5906 21.7855 35.5154 21.7255C35.4402 21.6655 35.4102 21.6354 35.3575 21.5754C35.3049 21.5153 35.35 21.5754 35.2823 21.4253C35.2147 21.2752 35.2523 21.2602 35.1846 21.2527C35.1169 21.2452 35.0643 21.1776 35.0417 21.2902C35.0192 21.4028 34.9214 21.6354 35.0267 21.733C35.132 21.8306 35.1996 21.7405 35.1771 21.8906C35.1545 22.0407 35.2222 22.1458 35.0868 22.1383C34.9515 22.1308 34.9665 22.1833 34.8462 22.1308C34.7259 22.0782 34.8538 22.2208 34.7259 22.0782C34.5981 21.9356 34.6582 21.8681 34.5379 21.8906C34.4176 21.9131 34.365 21.9807 34.3049 22.0182C34.2447 22.0557 34.2221 22.0557 34.2221 22.1833C34.2221 22.3109 34.1244 22.4985 34.0718 22.476C34.0191 22.4535 33.9139 22.2884 33.8763 22.3484C33.8387 22.4084 33.583 22.6336 33.5605 22.7612C33.5379 22.8888 33.4101 23.0614 33.3725 23.1214C33.3349 23.1814 33.4326 23.1739 33.3048 23.264C33.177 23.3541 33.207 23.3935 33.0416 23.4676C32.8762 23.5417 32.8085 23.4686 32.7634 23.4676C32.7183 23.4666 32.6506 23.3466 32.598 23.2865C32.5454 23.2265 32.5078 23.1589 32.5303 23.0989C32.5529 23.0388 32.583 23.0163 32.598 22.9188C32.613 22.8212 32.6431 22.6936 32.6582 22.5961C32.6732 22.4985 32.6732 22.476 32.7333 22.3784C32.7935 22.2808 33.0116 22.0182 33.0191 21.9356C33.0266 21.8531 33.0567 21.808 33.0116 21.7705C32.9664 21.733 32.9739 21.1476 32.9739 21.1476Z" fill="white"/>
<path d="M27.4089 30.6413C27.5969 30.6413 27.7473 30.5212 27.7398 30.3936C27.7323 30.266 27.6721 30.2435 27.7473 30.1159C27.8225 29.9884 27.9052 29.9358 27.9428 29.8908C27.9804 29.8458 28.018 29.8458 28.0857 29.7182C28.1534 29.5906 28.0556 29.6506 28.1684 29.5306C28.2812 29.4105 28.3413 29.2604 28.424 29.2228C28.5068 29.1853 28.6947 29.0052 28.7173 28.9377C28.7398 28.8701 28.8075 28.66 28.7173 28.5699C28.6271 28.4799 28.4316 28.3973 28.3639 28.3823C28.2962 28.3673 28.2285 28.3598 28.0255 28.2172C27.8225 28.0746 27.815 28.0746 27.6721 27.9545C27.5293 27.8344 27.6646 27.8044 27.4616 27.7594C27.2586 27.7143 27.221 27.7143 27.1759 27.6693C27.1307 27.6243 27.0631 27.4592 27.0104 27.3766C26.9578 27.2941 26.8826 27.219 26.7698 27.204C26.657 27.189 26.469 27.1139 26.4014 27.0389C26.3337 26.9638 26.2736 26.8888 26.251 26.7612C26.2284 26.6336 26.2209 26.6336 26.1156 26.5511C26.0104 26.4685 25.9277 26.4385 25.8374 26.3634C25.7472 26.2884 25.6645 26.2884 25.5592 26.2509C25.454 26.2133 25.3788 26.1833 25.281 26.1383C25.1833 26.0933 24.6945 25.7555 24.6118 25.6655C24.5291 25.5754 24.4689 25.3728 24.2885 25.4253C24.108 25.4778 24.0704 25.628 23.905 25.6054C23.7396 25.5829 23.4012 25.5154 23.4313 25.5754C23.4614 25.6355 23.6493 25.733 23.6343 25.8756C23.6193 26.0182 23.3937 26.2584 23.3335 26.3259C23.2734 26.3935 23.2132 26.5511 23.108 26.6561C23.0027 26.7612 23.1004 26.7237 22.9125 26.8513C22.7245 26.9789 22.8222 26.8663 22.6719 27.0839C22.5215 27.3016 22.4388 27.3316 22.4012 27.3691C22.3636 27.4066 22.3636 27.4742 22.3185 27.5943C22.2733 27.7143 22.2809 27.7594 22.2357 27.8644C22.1906 27.9695 22.1831 28.1346 22.1756 28.2547C22.1681 28.3748 22.3034 28.735 22.3936 28.8476C22.4839 28.9602 22.4989 29.1028 22.5967 29.1703C22.6944 29.2379 22.732 29.2604 22.7546 29.2679C22.7771 29.2754 23.0177 29.3054 23.0629 29.448C23.108 29.5906 23.2057 29.7482 23.2132 29.8458C23.2208 29.9433 23.2508 29.9208 23.3185 29.9884C23.3862 30.0559 23.4163 30.0859 23.4915 30.1235C23.5666 30.161 23.5817 30.1159 23.6644 30.2135C23.7471 30.3111 23.7997 30.3786 23.8148 30.5062C23.8298 30.6338 23.7697 30.6638 23.7245 30.7389C23.6794 30.8139 23.6268 31.6019 23.6494 31.8046C23.6719 32.0072 23.5666 32.1198 23.4839 32.2624C23.4012 32.405 23.296 32.405 23.2508 32.48C23.2057 32.5551 23.2208 32.5776 23.2057 32.6601C23.1907 32.7427 23.311 33.1855 23.2358 33.3356C23.1606 33.4857 23.1756 33.4181 23.123 33.5908C23.0704 33.7634 23.0929 33.8084 23.0704 33.9285C23.0478 34.0486 23.0027 34.1386 23.0027 34.2212C23.0027 34.3037 23.0629 34.3413 23.0704 34.6865C23.0779 35.0317 22.9952 35.1893 22.9651 35.2869C22.935 35.3845 22.9125 35.5271 22.8974 35.6021C22.8824 35.6771 22.7771 35.8573 22.9501 35.8047C23.123 35.7522 23.1907 35.6096 23.3486 35.5421C23.5065 35.4745 23.5967 35.5646 23.7245 35.437C23.8524 35.3094 23.7922 35.3394 23.9426 35.2569C24.093 35.1743 24.0178 35.2494 24.108 35.0617C24.1982 34.8741 24.2358 34.8816 24.2208 34.754C24.2058 34.6265 24.1531 34.664 24.1907 34.5364C24.2283 34.4088 24.1757 34.3037 24.2509 34.1386C24.3261 33.9735 24.3637 33.906 24.3937 33.8459C24.4238 33.7859 24.3862 33.7409 24.6043 33.5683C24.8223 33.3956 24.875 33.4181 24.9126 33.2605C24.9502 33.1029 24.8223 32.5175 24.9502 32.3975C25.078 32.2774 25.0705 32.2023 25.2058 32.0748C25.3412 31.9472 25.3489 31.8796 25.4691 31.8796C25.5893 31.8796 25.7021 31.8121 25.8525 31.7821C26.0029 31.752 26.0705 31.6845 26.1608 31.6019C26.251 31.5194 26.251 31.4668 26.3111 31.3843C26.3713 31.3017 26.3036 31.3918 26.4014 31.2492C26.4991 31.1066 26.439 31.1291 26.5142 31.0541C26.5893 30.979 26.5517 30.979 26.7021 30.874C26.8525 30.7689 26.9879 30.6413 27.1307 30.6563C27.2736 30.6713 27.4089 30.6413 27.4089 30.6413Z" fill="white"/>
<path d="M1.50277 20.6344C1.01741 20.5844 0.571988 20.6981 0.484003 21.2554C0.360618 22.0368 1.20437 22.2745 2.26321 22.4411C3.32207 22.6076 4.19816 22.6404 4.32154 21.859C4.4449 21.0775 3.51709 20.8725 2.90744 20.7766L2.76485 21.6797L2.30282 21.6071L2.5263 20.1915L4.90712 20.566L4.84037 20.9887L4.2179 20.8908L4.21587 20.9037C4.58812 21.0869 4.85134 21.5025 4.77245 22.0021C4.58437 23.1934 3.4023 23.2241 2.17018 23.0303C1.01507 22.8487 -0.177262 22.4445 0.0219429 21.1827C0.229258 19.8696 1.35733 20.0142 1.5958 20.0452L1.50277 20.6344Z" fill="#9D3144"/>
<path d="M1.021 17.4132L1.26761 16.6887L6.06112 16.9993L5.86883 17.5642L4.55653 17.4684L4.08002 18.8683L5.17494 19.6026L4.98267 20.1675L1.021 17.4132ZM3.67473 18.6076L4.07601 17.4288L1.76353 17.2678L1.75934 17.2801L3.67473 18.6076Z" fill="#9D3144"/>
<path d="M2.21729 14.2566L2.69807 13.4255L6.3471 14.4577L6.3536 14.4464L3.63365 11.8082L4.11446 10.9771L8.13165 13.2921L7.84578 13.7863L4.33495 11.7631L4.32845 11.7743L7.32601 14.6848L7.04012 15.179L3.01603 14.043L3.00953 14.0542L6.52034 16.0775L6.23447 16.5717L2.21729 14.2566Z" fill="#9D3144"/>
<path d="M5.13281 9.70185L5.48972 9.2561L9.11321 12.1467L8.75628 12.5924L5.13281 9.70185Z" fill="#9D3144"/>
<path d="M6.46729 8.07383L6.99975 7.55998L10.7936 9.27478L10.8029 9.26576L8.11141 6.48723L8.52245 6.09058L11.7468 9.41924L11.1816 9.96463L7.50183 8.30219L7.49249 8.3112L10.1027 11.0058L9.69166 11.4025L6.46729 8.07383Z" fill="#9D3144"/>
<path d="M12.4072 4.86034C12.1143 4.47087 11.728 4.22193 11.2586 4.53613C10.6003 4.97672 10.9988 5.75617 11.5959 6.64476C12.1929 7.53338 12.764 8.19727 13.4223 7.75666C14.0806 7.31608 13.6009 6.49727 13.2572 5.98565L12.4964 6.49488L12.2358 6.10711L13.4283 5.30899L14.7707 7.30703L14.4146 7.54537L14.0636 7.02297L14.0528 7.03021C14.171 7.42734 14.0444 7.90247 13.6235 8.18414C12.6199 8.85588 11.7942 8.01104 11.0995 6.97702C10.4482 6.00764 9.93515 4.85981 10.9981 4.14837C12.1042 3.40803 12.7644 4.33244 12.9036 4.52809L12.4072 4.86034Z" fill="#9D3144"/>
<path d="M15.5898 1.80306L16.1286 1.61206L17.5117 5.49828L19.287 4.86882L19.4567 5.34544L17.1426 6.1659L15.5898 1.80306Z" fill="#9D3144"/>
<path d="M20.0738 0.486386L20.8275 0.346436L22.9021 4.67046L22.3145 4.77957L21.7559 3.59056L20.2997 3.86096L20.1941 5.17329L19.6064 5.28239L20.0738 0.486386ZM20.3291 3.3806L21.5554 3.1529L20.5643 1.06146L20.5515 1.06384L20.3291 3.3806Z" fill="#9D3144"/>
<path d="M23.3008 0.0244194L24.7234 3.54531e-05C25.3275 -0.01032 25.917 0.26494 25.9325 1.16616C25.9397 1.58759 25.6936 2.01335 25.2736 2.14378L25.2738 2.15673C25.8477 2.28309 26.1085 2.71314 26.1184 3.28369C26.1345 4.2238 25.6085 4.61546 24.6406 4.63204L23.3804 4.65363L23.3008 0.0244194ZM23.9068 2.01155L24.5628 2.00029C24.8032 1.99618 25.3478 1.92848 25.3355 1.2153C25.3273 0.735515 25.0821 0.460849 24.5235 0.470411L23.8804 0.481426L23.9068 2.01155ZM23.944 4.17704L24.7235 4.16367C25.3276 4.15333 25.5285 3.74129 25.5207 3.29393C25.5098 2.65855 25.0964 2.41919 24.5962 2.42777L23.9141 2.43944L23.944 4.17704Z" fill="#9D3144"/>
<path d="M30.1395 2.82985C29.9564 3.98267 29.5505 5.17243 28.2864 4.9725C27.0223 4.77259 27.0048 3.51584 27.1878 2.36302C27.3708 1.21021 27.7768 0.0204498 29.0409 0.220377C30.3049 0.420284 30.3225 1.67703 30.1395 2.82985ZM27.7781 2.45638C27.6104 3.51313 27.5768 4.38757 28.3596 4.51138C29.1424 4.63519 29.3814 3.79322 29.5491 2.73649C29.7169 1.67974 29.7505 0.805301 28.9676 0.68149C28.1848 0.557684 27.9459 1.39964 27.7781 2.45638Z" fill="#9D3144"/>
<path d="M32.0974 0.959229L33.5151 1.45047C34.2025 1.68863 34.4976 2.24393 34.2568 2.93611C34.0906 3.4139 33.7502 3.85877 33.1982 3.80476L33.194 3.81703C33.5595 3.99174 33.6657 4.37859 33.5603 4.76075L33.3372 5.52083C33.1934 6.01323 33.2306 6.16341 33.3317 6.28768L32.6812 6.06226C32.6211 5.9385 32.6911 5.59895 32.7534 5.3803L32.953 4.68761C33.1189 4.0724 32.8003 3.92083 32.5241 3.82514L31.7938 3.57206L31.1163 5.51999L30.5762 5.33285L32.0974 0.959229ZM31.9472 3.13103L32.4811 3.31605C32.8002 3.42663 33.3833 3.62867 33.6773 2.78335C33.8264 2.35455 33.6317 1.98507 33.1285 1.81069L32.4841 1.58741L31.9472 3.13103Z" fill="#9D3144"/>
<path d="M36.901 2.9397L37.5729 3.30818L36.4321 7.96547L35.9083 7.67817L36.2312 6.40503L34.933 5.69299L34.018 6.64137L33.4941 6.35406L36.901 2.9397ZM35.2607 5.34004L36.354 5.93963L36.9153 3.69481L36.9039 3.68857L35.2607 5.34004Z" fill="#9D3144"/>
<path d="M37.659 8.92145L37.2021 8.57845L39.6859 5.28303L38.7567 4.5853L39.0613 4.18115L41.3818 5.92351L41.0772 6.32769L40.1427 5.62605L37.659 8.92145Z" fill="#9D3144"/>
<path d="M42.7175 10.532C41.8693 11.3354 40.8217 12.0328 39.9407 11.1062C39.0598 10.1797 39.8122 9.17196 40.6604 8.36854C41.5086 7.56513 42.5562 6.86782 43.4371 7.79437C44.3181 8.72089 43.5657 9.72861 42.7175 10.532ZM41.0718 8.80125C40.2943 9.53772 39.7345 10.2111 40.28 10.7849C40.8256 11.3586 41.5286 10.8358 42.3061 10.0993C43.0836 9.36288 43.6434 8.68952 43.0979 8.11573C42.5523 7.54193 41.8493 8.06479 41.0718 8.80125Z" fill="#9D3144"/>
<path d="M45.4108 10.2312L46.2383 11.4808C46.6395 12.0867 46.5362 12.7068 45.9238 13.1108C45.501 13.3897 44.9599 13.5369 44.5541 13.1594L44.5433 13.1665C44.7275 13.5269 44.5764 13.8986 44.2602 14.1384L43.6204 14.6071C43.2066 14.9112 43.1448 15.053 43.1496 15.2131L42.7698 14.6397C42.7974 14.5049 43.0595 14.2776 43.2421 14.1416L43.8222 13.7122C44.3282 13.3239 44.1673 13.0104 44.0061 12.767L43.5798 12.1232L41.8563 13.2603L41.541 12.7842L45.4108 10.2312ZM43.97 11.8658L44.2817 12.3364C44.468 12.6177 44.8083 13.1316 45.5562 12.6382C45.9356 12.3879 46.0057 11.9763 45.712 11.5327L45.3358 10.9647L43.97 11.8658Z" fill="#9D3144"/>
<path d="M47.5567 13.7559L47.8109 14.267L43.656 16.3255L43.4019 15.8144L47.5567 13.7559Z" fill="#9D3144"/>
<path d="M48.4379 15.616L49.2493 17.8674L48.7725 18.0386L48.1546 16.3241L46.7853 16.8157L47.368 18.4326L46.8912 18.6037L46.3085 16.9869L44.7436 17.5487L45.3878 19.3364L44.911 19.5076L44.0732 17.1829L48.4379 15.616Z" fill="#9D3144"/>
<path d="M48.824 21.4724C49.3029 21.3829 49.6027 21.1488 49.5022 20.6134C49.4137 20.1418 49.1057 19.9091 48.6204 19.9998C47.3369 20.2397 48.5061 22.2443 46.8395 22.5558C45.7858 22.7528 45.341 22.0377 45.2203 21.3939C45.0206 20.3295 45.5111 19.9146 46.4818 19.7332L46.587 20.2941C46.0761 20.3896 45.533 20.524 45.6872 21.3462C45.7709 21.7924 46.1548 22.0769 46.6401 21.9862C47.93 21.7451 46.7799 19.7368 48.4529 19.4242C48.8744 19.3454 49.7443 19.3675 49.9608 20.5211C50.1234 21.3879 49.7633 21.8642 48.9292 22.0333L48.824 21.4724Z" fill="#9D3144"/>
<path d="M6.43324 31.8867L6.61951 32.4269L2.22878 33.9354L2.04248 33.3953L6.43324 31.8867Z" fill="#9D3144"/>
<path d="M7.2318 34.0393L7.59266 34.6858L4.95313 37.9072L4.95948 37.9186L8.34598 36.0356L8.62453 36.5347L4.56752 38.7904L4.18452 38.1042L6.74393 34.9794L6.73758 34.968L3.45334 36.7941L3.1748 36.295L7.2318 34.0393Z" fill="#9D3144"/>
<path d="M7.05721 41.9896L6.67871 41.5611L9.78157 38.8308L9.01166 37.9591L9.39221 37.6243L11.3148 39.8009L10.9343 40.1358L10.1601 39.2592L7.05721 41.9896Z" fill="#9D3144"/>
<path d="M12.3339 40.7014L14.2465 42.1484L13.94 42.5519L12.4836 41.45L11.6036 42.6088L12.977 43.6479L12.6706 44.0514L11.2971 43.0123L10.2914 44.3366L11.81 45.4856L11.5035 45.8891L9.52881 44.3951L12.3339 40.7014Z" fill="#9D3144"/>
<path d="M15.5491 42.9399L16.9089 43.5775C17.5682 43.8867 17.8037 44.4704 17.4912 45.1343C17.2755 45.5926 16.8898 45.9999 16.3459 45.8883L16.3404 45.9001C16.686 46.1123 16.751 46.5086 16.6058 46.878L16.3038 47.6114C16.1089 48.0866 16.1301 48.24 16.2178 48.3743L15.5938 48.0817C15.5469 47.9522 15.6523 47.6215 15.7373 47.4103L16.009 46.7416C16.2387 46.1465 15.9375 45.9622 15.6726 45.838L14.9721 45.5095L14.0927 47.3779L13.5747 47.135L15.5491 42.9399ZM15.1712 45.0865L15.6833 45.3266C15.9894 45.4702 16.5486 45.7323 16.9303 44.9215C17.1238 44.5103 16.9688 44.122 16.4861 43.8957L15.868 43.6059L15.1712 45.0865Z" fill="#9D3144"/>
<path d="M19.4694 44.5901L20.1939 44.7473L20.8707 48.8532L20.8834 48.8559L21.7065 45.0753L22.2657 45.1966L21.2797 49.7257L20.5108 49.559L19.8536 45.5768L19.8408 45.5741L19.0427 49.2405L18.4834 49.1193L19.4694 44.5901Z" fill="#9D3144"/>
<path d="M24.8039 45.3444L25.5712 45.332L26.8949 49.946L26.2967 49.9557L25.9444 48.6889L24.4618 48.7128L24.1378 49.9905L23.5396 50.0002L24.8039 45.3444ZM24.5713 48.2436L25.8198 48.2235L25.1917 45.9938L25.1787 45.9941L24.5713 48.2436Z" fill="#9D3144"/>
<path d="M30.0286 49.4642L29.467 49.5744L28.6689 45.5234L27.5266 45.7476L27.4287 45.2508L30.2812 44.6909L30.3791 45.1877L29.2305 45.4132L30.0286 49.4642Z" fill="#9D3144"/>
<path d="M31.627 44.2122L32.1632 44.0125L33.7867 48.3552L33.2504 48.5549L31.627 44.2122Z" fill="#9D3144"/>
<path d="M37.4637 43.8702C38.0593 44.8762 38.5066 46.0526 37.4035 46.7033C36.3004 47.354 35.4836 46.3955 34.8879 45.3895C34.2923 44.3835 33.845 43.207 34.9481 42.5564C36.0512 41.9057 36.868 42.8642 37.4637 43.8702ZM35.4031 45.0856C35.9491 46.0078 36.4821 46.7039 37.1652 46.3009C37.8484 45.898 37.4945 45.0962 36.9485 44.1741C36.4025 43.2519 35.8695 42.5558 35.1864 42.9588C34.5032 43.3617 34.8571 44.1635 35.4031 45.0856Z" fill="#9D3144"/>
<path d="M37.5293 40.9232L38.0658 40.4123L41.8523 42.1541L41.8617 42.1452L39.1858 39.3457L39.5999 38.9514L42.8056 42.3051L42.2362 42.8473L38.5634 41.1586L38.554 41.1676L41.1491 43.8825L40.735 44.2768L37.5293 40.9232Z" fill="#9D3144"/>
<path d="M41.1528 36.9233L41.5795 36.2866L46.1337 37.8277L45.8011 38.3241L44.557 37.8919L43.7326 39.1221L44.6005 40.1155L44.2678 40.612L41.1528 36.9233ZM43.4084 38.7651L44.1027 37.7291L41.9086 36.9749L41.9014 36.9857L43.4084 38.7651Z" fill="#9D3144"/>
<path d="M42.8052 34.1208L43.0203 33.5914L46.8534 35.1432L47.5624 33.3987L48.0325 33.589L47.1084 35.8629L42.8052 34.1208Z" fill="#9D3144"/>
</g>
<defs>
<clipPath id="clip0_2493_42845">
<rect width="50" height="50" fill="white"/>
</clipPath>
</defs>
</svg>
