<svg width="120" height="40" viewBox="0 0 120 40" fill="none" xmlns="http://www.w3.org/2000/svg">
<path d="M18.2698 38.9906C8.24717 38.9906 0.0932617 30.7604 0.0932617 20.6442C0.0932617 10.5278 8.24717 2.29761 18.2698 2.29761C20.0039 2.29761 21.7195 2.54397 23.3689 3.02967C23.929 3.19456 24.2506 3.78646 24.0871 4.35167C23.9236 4.91715 23.3372 5.24212 22.7773 5.07657C21.3201 4.64749 19.8035 4.42989 18.2698 4.42989C9.412 4.42989 2.20578 11.7035 2.20578 20.6442C2.20578 29.5847 9.412 36.8583 18.2698 36.8583C27.1274 36.8583 34.3338 29.5847 34.3338 20.6442C34.3338 19.2892 34.168 17.943 33.841 16.6427C33.6973 16.0719 34.0395 15.4919 34.6048 15.347C35.1693 15.2013 35.7449 15.5472 35.8885 16.118C36.2586 17.5897 36.4463 19.1125 36.4463 20.6442C36.4463 30.7604 28.2922 38.9906 18.2698 38.9906Z" fill="#EA3323"/>
<path d="M32.089 13.0922C31.5057 13.0922 31.0327 12.6149 31.0327 12.0261V2.07542C31.0327 1.48665 31.5057 1.00928 32.089 1.00928C32.6723 1.00928 33.1452 1.48665 33.1452 2.07542V12.0261C33.1452 12.6149 32.6723 13.0922 32.089 13.0922Z" fill="#EA3323"/>
<path d="M37.0181 8.11714H27.1598C26.5765 8.11714 26.1035 7.63977 26.1035 7.051C26.1035 6.46223 26.5765 5.98486 27.1598 5.98486H37.0181C37.6014 5.98486 38.0744 6.46223 38.0744 7.051C38.0744 7.63977 37.6014 8.11714 37.0181 8.11714Z" fill="#EA3323"/>
<path d="M11.0471 27.146V17.6143C9.28983 18.9761 8.10682 19.6568 7.49811 19.6568C7.20748 19.6568 6.94973 19.5399 6.725 19.3059C6.50013 19.0722 6.3877 18.8015 6.3877 18.4943C6.3877 18.138 6.49833 17.8761 6.71984 17.7085C6.9411 17.5411 7.33204 17.3246 7.8924 17.0591C8.72947 16.6611 9.39878 16.2423 9.90048 15.8024C10.4019 15.3623 10.8464 14.8701 11.234 14.3253C11.6213 13.7808 11.8737 13.4455 11.9915 13.3198C12.1091 13.1941 12.3303 13.1313 12.6556 13.1313C13.0222 13.1313 13.3162 13.2745 13.5377 13.5608C13.7589 13.8471 13.8697 14.2417 13.8697 14.7444V26.7377C13.8697 28.1411 13.3959 28.8429 12.448 28.8429C12.026 28.8429 11.6869 28.6997 11.4311 28.4134C11.175 28.1271 11.0471 27.7049 11.0471 27.146Z" fill="white"/>
<path d="M17.3987 17.1224C17.3987 16.4243 17.587 15.7661 17.9642 15.1479C18.3412 14.5299 18.8946 14.0362 19.6247 13.6658C20.3544 13.2959 21.2072 13.1106 22.1828 13.1106C23.0059 13.1106 23.729 13.2191 24.3515 13.4354C24.9743 13.652 25.4931 13.9505 25.9081 14.3311C26.3232 14.7116 26.6309 15.1411 26.8318 15.6193C27.0324 16.0977 27.1327 16.6057 27.1327 17.1432C27.1327 17.8278 26.9579 18.4387 26.6087 18.9764C26.2593 19.5142 25.7386 19.9541 25.0467 20.2961C25.6347 20.5265 26.1223 20.8287 26.5099 21.2022C26.8973 21.5757 27.1897 22.0088 27.387 22.501C27.584 22.9932 27.6828 23.5398 27.6828 24.1403C27.6828 25.0201 27.4716 25.8179 27.0497 26.5337C26.6275 27.2494 26.0084 27.8098 25.1922 28.2149C24.3758 28.6196 23.4139 28.8224 22.3071 28.8224C21.1588 28.8224 20.1762 28.6196 19.3599 28.2149C18.5436 27.8098 17.928 27.2528 17.5128 26.5441C17.0977 25.8353 16.8901 25.0409 16.8901 24.1611C16.8901 22.2829 17.7687 20.9945 19.5261 20.2961C18.1077 19.6259 17.3987 18.5678 17.3987 17.1224ZM24.8392 24.0565C24.8392 23.5117 24.7285 23.0369 24.5073 22.6319C24.2858 22.2269 23.9745 21.9161 23.5732 21.6996C23.172 21.4833 22.7223 21.375 22.2243 21.375C21.5185 21.375 20.9269 21.6124 20.4496 22.0872C19.9723 22.5622 19.7337 23.2254 19.7337 24.0773C19.7337 24.6221 19.8459 25.1023 20.0708 25.5175C20.2956 25.9332 20.6017 26.2544 20.9893 26.4813C21.3767 26.7083 21.8091 26.8215 22.2864 26.8215C22.7707 26.8215 23.2065 26.7065 23.5939 26.4759C23.9815 26.2455 24.2858 25.9209 24.5073 25.5019C24.7285 25.0828 24.8392 24.601 24.8392 24.0565ZM22.2449 15.1114C21.5946 15.1114 21.0706 15.3155 20.6727 15.7242C20.2748 16.1325 20.0762 16.6581 20.0762 17.3005C20.0762 17.8942 20.2802 18.3882 20.6884 18.7825C21.0963 19.1771 21.6224 19.3744 22.2658 19.3744C22.5907 19.3744 22.8865 19.3221 23.1529 19.2172C23.4193 19.1126 23.6475 18.9676 23.8378 18.7825C24.0281 18.5977 24.1751 18.3778 24.2788 18.1227C24.3827 17.8679 24.4346 17.5868 24.4346 17.2796C24.4346 16.8676 24.3427 16.4975 24.1597 16.1692C23.976 15.841 23.7184 15.5826 23.3865 15.3941C23.0544 15.2057 22.6738 15.1114 22.2449 15.1114Z" fill="white"/>
<g clip-path="url(#clip0_2493_42850)">
<path d="M69.8739 20.1423H73.7261V25.6622H72.4629V23.9435C72.1155 24.5109 71.9579 24.7157 71.6419 24.984C70.9158 25.6151 70.0315 25.9461 69.0846 25.9461C66.4956 25.9461 64.4746 23.4224 64.4746 20.1739C64.4746 16.8933 66.4798 14.3384 69.0532 14.3384C70.1109 14.3384 71.3578 14.6383 72.3683 16.2628V14.5435H73.5364V18.0763H72.3208C72.1632 17.4613 71.9737 17.0671 71.6893 16.7201C71.0578 15.9471 70.2057 15.5055 69.3215 15.5055C67.9478 15.5055 65.9745 16.673 65.9745 20.1105C65.9745 22.776 67.4112 24.7631 69.337 24.7631C70.7423 24.7631 72.0683 23.6117 72.3838 22.1292C72.4315 21.9088 72.4468 21.6879 72.4629 21.2305H69.8739L69.8739 20.1423Z" fill="white"/>
<path d="M83.2139 25.662H80.8139V24.1636C80.1355 25.2207 79.2197 25.82 77.9725 25.82C76.3938 25.82 75.2412 24.7315 75.2412 23.265C75.2412 21.6563 76.6621 20.8514 80.0088 20.5363C80.1197 20.5205 80.4668 20.4892 80.7984 20.4573V19.59C80.7984 18.6285 80.0565 18.0284 78.8881 18.0284C77.6565 18.0284 77.1041 18.4387 76.8516 19.5268H75.5728C75.762 18.6756 76.0148 18.2335 76.52 17.7923C77.0888 17.3191 77.8779 17.0669 78.7932 17.0669C80.5301 17.0669 82.0142 17.8713 82.0142 20V24.6686H83.2139V25.662ZM80.7984 21.3246L80.0248 21.4194C77.4356 21.7348 76.5674 22.2079 76.5674 23.2803C76.5674 24.1636 77.341 24.889 78.3196 24.889C79.8195 24.889 80.7984 23.4699 80.7984 22.6968V21.3246Z" fill="white"/>
<path d="M86.7266 18.7697C87.1056 18.1865 87.8634 17.0193 89.4105 17.0193C90.5314 17.0193 91.1787 17.6033 91.384 18.7857C91.7156 18.2183 91.8735 18.0132 92.1892 17.7452C92.7416 17.256 93.3415 17.0193 94.0046 17.0193C95.2992 17.0193 96.057 17.8552 96.057 19.3218V24.6687H97.2253V25.6621H94.8414V19.7638C94.8414 18.5806 94.4469 18.0445 93.6256 18.0445C92.1576 18.0445 91.384 19.811 91.384 20.3789V24.6687H92.5996V25.6621H90.1685V19.574C90.1685 18.5177 89.7737 18.0445 88.9527 18.0445C87.6425 18.0445 86.7111 19.669 86.7111 20.4421V24.6687H87.9108V25.6621H84.2637V24.6687H85.4953V18.1704H84.2637V17.1612H86.7266L86.7266 18.7697Z" fill="white"/>
<path d="M98.4884 14.0542H100.856V18.9595C101.172 18.3603 102.151 17.0828 103.635 17.0828C105.545 17.0828 106.998 19.0227 106.998 21.5145C106.998 23.8325 105.451 25.7722 103.604 25.7722C102.104 25.7722 101.378 24.7788 100.856 24.0692V25.6621H98.4409V24.6687H99.6409V15.0484H98.4884L98.4884 14.0542ZM100.856 22.0819C100.856 23.4855 101.993 24.7317 103.288 24.7317C104.74 24.7317 105.671 23.4223 105.671 21.3884C105.671 19.4327 104.74 18.0917 103.335 18.0917C102.104 18.0917 100.856 19.464 100.856 20.6625V22.0819Z" fill="white"/>
<path d="M107.959 14.0542H110.375V24.6687H111.512V25.6621H107.944V24.6687H109.159V15.0484H107.959V14.0542Z" fill="white"/>
<path d="M119.718 23.3279C119.544 23.9113 119.355 24.2584 119.039 24.6206C118.36 25.4097 117.428 25.8352 116.371 25.8352C114.066 25.8352 112.456 24.0375 112.456 21.4512C112.456 18.9594 114.066 17.0508 116.165 17.0508C118.281 17.0508 119.907 18.6913 119.907 21.6563H113.766C113.876 22.9019 114.161 23.5962 114.745 24.1636C115.187 24.5896 115.708 24.7947 116.339 24.7947C117.318 24.7947 117.918 24.3526 118.344 23.3279H119.718ZM118.502 20.7253C118.407 19.6689 118.17 19.0855 117.681 18.6124C117.302 18.2653 116.829 18.0916 116.276 18.0916C115.25 18.0916 114.397 18.7856 114.018 19.9056C113.955 20.1102 113.876 20.4259 113.845 20.7253H118.502Z" fill="white"/>
<path d="M68.4214 27.6826H71.0895L74.152 36.9876H74.9891V38.8014H72.4315L71.7054 36.3883H67.7899L67.0636 38.8014H64.4746V36.9876H65.3272L68.4214 27.6826ZM69.7632 29.7642L68.2794 34.6851H71.2157L69.7632 29.7642Z" fill="white"/>
<path d="M74.9258 30.3638H78.3044V32.0041H77.4517L78.6199 36.9718L80.0093 30.3638H82.1879L83.593 36.8929L84.7139 32.0041H83.8929V30.3638H87.2873V32.0041H86.5609L84.7453 38.8014H82.5037L81.0986 32.9343L79.7724 38.8014H77.4992L75.6361 32.0041H74.9258V30.3638Z" fill="white"/>
<path d="M95.2757 37.1609H96.002V38.8015H93.3812V37.8081C92.513 38.6754 91.8657 38.9747 90.8239 38.9747C89.1344 38.9747 87.8398 37.8391 87.8398 36.3413C87.8398 33.8648 90.6344 33.5967 93.334 33.3445C93.3182 32.0512 93.0025 31.72 91.7709 31.72C90.9027 31.72 90.3028 32.2092 90.2554 32.9975L88.203 32.9343C88.3135 31.2469 89.6713 30.1587 91.6763 30.1587C94.0127 30.1587 95.2757 31.2155 95.2757 33.1394V37.1609ZM93.3024 34.8113C91.3131 35.0004 90.0187 35.1741 90.0187 36.3413C90.0187 37.0348 90.5711 37.4921 91.4079 37.4921C92.4814 37.4921 93.3024 36.6878 93.3024 35.6314V34.8113Z" fill="white"/>
<path d="M100.359 31.6729C100.912 30.6005 101.527 30.1587 102.474 30.1587C102.759 30.1587 103.011 30.1903 103.422 30.2693V32.2408C103.043 32.1621 102.743 32.1302 102.396 32.1302C101.291 32.1302 100.359 32.9185 100.359 33.8808V37.1609H101.37V38.8015H97.4702V37.1609H98.291V32.0041H97.4858V30.3638H100.359L100.359 31.6729Z" fill="white"/>
<path d="M111.915 36.0256C111.537 37.855 110.005 38.9905 107.953 38.9905C105.585 38.9905 103.848 37.1456 103.848 34.5588C103.848 32.0041 105.601 30.1116 107.969 30.1116C109.31 30.1116 110.494 30.7427 111.221 31.8309C111.994 33.0136 112.026 34.1328 112.058 34.9848H105.963C106.169 37.177 107.605 37.287 108 37.287C108.837 37.287 109.39 36.8929 109.721 36.0256H111.915ZM109.752 33.5336C109.611 32.4612 108.963 31.878 107.969 31.878C107.053 31.878 106.343 32.493 106.074 33.5336H109.752Z" fill="white"/>
<path d="M64.5062 1.00928H68.753C70.6477 1.00928 71.3578 1.07221 71.8946 1.30916C72.6368 1.62433 73.5996 2.52346 73.5996 3.98999C73.5996 5.10977 73.2364 5.66162 72.1629 6.24508C73.4259 6.76612 74.0102 7.55442 74.0102 9.02095C74.0102 10.8824 72.5733 12.128 70.4263 12.128H64.4746V10.3142H65.343V2.82283H64.5062V1.00928ZM67.6165 2.82283V5.51971H69.8107C70.7579 5.51971 71.4055 4.93652 71.4055 4.10031C71.4055 3.35914 70.6791 2.82283 69.6531 2.82283L67.6165 2.82283ZM67.6165 7.27033V10.3142H69.953C70.9474 10.3142 71.7212 9.66785 71.7212 8.81585C71.7212 7.88538 70.9316 7.27033 69.7316 7.27033H67.6165Z" fill="white"/>
<path d="M83.3295 9.35227C82.9508 11.1816 81.4193 12.3172 79.3669 12.3172C76.9988 12.3172 75.2622 10.4723 75.2622 7.88548C75.2622 5.33077 77.0146 3.43823 79.383 3.43823C80.7248 3.43823 81.9084 4.06934 82.6351 5.15752C83.4084 6.34022 83.44 7.45948 83.4716 8.31148H77.3778C77.5831 10.5036 79.0198 10.6137 79.4141 10.6137C80.2512 10.6137 80.8036 10.2196 81.1354 9.35227H83.3295ZM81.1665 6.86023C81.0247 5.78784 80.3774 5.20465 79.383 5.20465C78.4668 5.20465 77.7568 5.8197 77.4882 6.86023H81.1665Z" fill="white"/>
</g>
<defs>
<clipPath id="clip0_2493_42850">
<rect width="55.4321" height="37.9813" fill="white" transform="translate(64.4746 1.00928)"/>
</clipPath>
</defs>
</svg>
